# xmcd
#
# Track frame offsets:
#	182
#	15385
#	39077
#	52060
#	66157
#	78227
#	93775
#	108937
#	122450
#	136422
#	149297
#	165125
#
# Disc length: 2390 seconds
#
# Revision: 0
# Processed by: cddbd v1.5.1PL0 Copyright (c) Steve Scherf et al.
# Submitted via: audiograbber 1.81.02
#
DISCID=8809540c
DTITLE=TIBAGI and MILTINHO - OS TROVADORES DO BRASIL VOL. 5
DYEAR=1900
DGENRE=SERTANEJO
TTITLE0=POMBINHA BRANCA (VOLA COLOMBA)
TTITLE1=MALAQUEÑA
TTITLE2=BROTINHO ENCANTADOR
TTITLE3=AMOR CATIVO
TTITLE4=SUPLÍCIO
TTITLE5=POR QUE ME DESPREZAS
TTITLE6=DOMINIQUE
TTITLE7=O RELÓGIO
TTITLE8=SÓ VOCÊ
TTITLE9=TUAS CARTAS
TTITLE10=AMAR-TE-EI ETERNAMENTE
TTITLE11=AMOR SE DIZ CANTANDO
EXTD=
EXTT0=
EXTT1=
EXTT2=
EXTT3=
EXTT4=
EXTT5=
EXTT6=
EXTT7=
EXTT8=
EXTT9=
EXTT10=
EXTT11=
PLAYORDER=
